HIERARCHY
ROOT BEC
{
	OFFSET 0 0 0
	CHANNELS 6 Xposition Yposition Zposition Zrotation Xrotation Yrotation
	JOINT ULW
	{
		OFFSET 0 57.846 41.889
		CHANNELS 3 Zrotation Xrotation Yrotation
		JOINT OLW
		{
			OFFSET 0 -32.4844 86.973
			CHANNELS 3 Zrotation Xrotation Yrotation
			JOINT UBW
			{
				OFFSET 0 17.8136 104.786
				CHANNELS 3 Zrotation Xrotation Yrotation
				JOINT OBW
				{
					OFFSET 0 38.6661 128.887
					CHANNELS 3 Zrotation Xrotation Yrotation
					JOINT UHW
					{
						OFFSET 0 19.9177 113.169
						CHANNELS 3 Zrotation Xrotation Yrotation
						JOINT BRK
						{
							OFFSET 0 -15.1469 66.756
							CHANNELS 3 Zrotation Xrotation Yrotation
							JOINT SB.R
							{
								OFFSET -24.9335 -90.294 0
								CHANNELS 3 Zrotation Xrotation Yrotation
								JOINT OA.R
								{
									OFFSET -156.17 61.835 -27.537
									CHANNELS 3 Zrotation Xrotation Yrotation
									JOINT UA.R
									{
										OFFSET -277.962 0 -49.0122
										CHANNELS 3 Zrotation Xrotation Yrotation
										JOINT HA.R
										{
											OFFSET -254.695 0 -44.9096
											CHANNELS 3 Zrotation Xrotation Yrotation
											JOINT FI.R
											{
												OFFSET -87.3042 0 -15.3941
												CHANNELS 3 Zrotation Xrotation Yrotation
												End Site
												{
													OFFSET -97.0055 0 -17.1047
												}
											}
										}
									}
								}
							}
							JOINT SB.L
							{
								OFFSET 24.9335 -90.294 0
								CHANNELS 3 Zrotation Xrotation Yrotation
								JOINT OA.L
								{
									OFFSET 156.17 61.835 -27.537
									CHANNELS 3 Zrotation Xrotation Yrotation
									JOINT UA.L
									{
										OFFSET 277.962 0 -49.0122
										CHANNELS 3 Zrotation Xrotation Yrotation
										JOINT HA.L
										{
											OFFSET 254.695 0 -44.9096
											CHANNELS 3 Zrotation Xrotation Yrotation
											JOINT FI.L
											{
												OFFSET 87.3042 0 -15.3941
												CHANNELS 3 Zrotation Xrotation Yrotation
												End Site
												{
													OFFSET 97.0055 0 -17.1047
												}
											}
										}
									}
								}
							}
						}
						JOINT OHW
						{
							OFFSET 0 -33.0717 146.335
							CHANNELS 3 Zrotation Xrotation Yrotation
							JOINT KO
							{
								OFFSET 0 -28.7427 98.908
								CHANNELS 3 Zrotation Xrotation Yrotation
								JOINT SEH
								{
									OFFSET 0 -106.726 37.9271
									CHANNELS 3 Zrotation Xrotation Yrotation
									End Site
									{
										OFFSET 0 -475.594 -149.954
									}
								}
							}
						}
					}
				}
			}
		}
	}
	JOINT OS.R
	{
		OFFSET -80.785 0 0
		CHANNELS 3 Zrotation Xrotation Yrotation
		JOINT US.R
		{
			OFFSET 0 0 -428.745
			CHANNELS 3 Zrotation Xrotation Yrotation
			JOINT FU.R
			{
				OFFSET 0 0 -400.067
				CHANNELS 3 Zrotation Xrotation Yrotation
				JOINT FB.R
				{
					OFFSET 0 -141.624 -71.809
					CHANNELS 3 Zrotation Xrotation Yrotation
					End Site
					{
						OFFSET 0 -69.815 0
					}
				}
			}
		}
	}
	JOINT OS.L
	{
		OFFSET 80.785 0 0
		CHANNELS 3 Zrotation Xrotation Yrotation
		JOINT US.L
		{
			OFFSET 0 0 -428.745
			CHANNELS 3 Zrotation Xrotation Yrotation
			JOINT FU.L
			{
				OFFSET 0 0 -400.067
				CHANNELS 3 Zrotation Xrotation Yrotation
				JOINT FB.L
				{
					OFFSET 0 -141.624 -71.809
					CHANNELS 3 Zrotation Xrotation Yrotation
					End Site
					{
						OFFSET 0 -69.815 0
					}
				}
			}
		}
	}
}
MOTION
Frames: 8
Frame Time: 0.4
1454.08 2903.12 830.117 14.706 27.5018 -18.243 -0.0139796 -21.8367 -1.01217 -0.00257981 -7.79483 6.24487 9.21935 6.22256 4.0206 18.4144 10.9874 1.52749 16.7749 2.12074 5.23236 0.0227122 -0.495276 -0.00768395 6.31423 -0.411938 7.59092 29.7969 -4.01462 -69.7903 67.7592 13.7772 7.21668 -0.0830048 -0.470733 -0.000340979 -2.94776e-06 -1.67176e-05 -4.35736e-13 -8.89974 3.25013 1.05543 -34.4131 -12.0132 61.9449 -58.2872 -9.63488 -4.78699 -0.0192031 0.108906 1.82502e-05 -3.06836e-07 1.74015e-06 1.11319e-14 2.97985 -2.755 3.48419 4.24618 0.967929 2.28311 -0.00237087 -0.00373256 0.000966949 7.24476 -44.7611 35.7991 7.56994 28.4592 -2.78298 0.015875 8.81142 2.01699 -0.00189306 1.3455 -0.0129661 37.2478 -3.11761 32.9312 40.5841 -4.88462 4.06842 -0.11587 2.71551 3.44227 0.00103105 5.59323 0.000299314
1483.03 2903.93 833.58 16.557 27.0915 -18.267 -0.00970087 -22.027 -0.592584 -0.00689358 -7.73462 6.18457 9.62784 6.28106 3.90737 19.2422 10.9933 1.36645 17.489 2.10812 5.01924 0.0124663 -0.598279 -0.0024294 7.86116 -0.439608 7.46673 30.1434 -3.33506 -69.1401 66.0241 13.695 6.90825 -0.0641594 -0.363861 -0.000203725 -2.72216e-06 -1.54382e-05 -3.83257e-13 -7.80153 3.17131 2.78485 -33.8246 -11.8551 61.9515 -56.7002 -9.1776 -4.74163 -0.0107881 0.0611825 5.75997e-06 -3.49001e-07 1.97928e-06 1.59028e-15 1.51444 -1.80357 2.75709 2.15071 1.6275 1.86634 -0.00121605 0.00903363 0.00239242 16.6121 -41.7469 37.4394 5.06806 30.7138 -2.5212 -0.226619 10.9237 1.34188 -0.00330547 1.26476 -0.0178508 33.9397 -2.80529 33.7017 40.0703 -5.24446 4.36471 -0.0775865 4.77522 3.5367 0.000813629 5.53333 0.00491978
1507.89 2907.54 835.065 18.367 27.1866 -18.098 -0.0184011 -22.1628 -0.12444 -0.0113572 -7.56782 6.04416 9.99816 6.26816 3.70335 19.9943 10.8638 1.15753 18.073 2.05935 4.73911 0.00556104 -0.666316 0.0047676 9.77779 -0.502128 7.15061 30.0376 -2.61054 -67.7952 65.0378 13.5531 6.42339 -0.0329607 -0.186928 -5.37674e-05 -1.10453e-06 -6.26411e-06 -5.08889e-14 -6.84207 3.07447 4.95549 -32.518 -11.3948 61.5233 -56.1977 -8.79131 -4.75944 -0.00395042 0.022404 7.72353e-07 -1.91752e-07 1.08748e-06 4.77083e-15 0.72688 -1.23303 2.67225 1.0027 2.02428 1.88443 0.00199643 0.114176 0.00514599 25.2194 -40.2948 37.6195 1.20523 31.6658 -1.08001 -0.554237 12.6354 1.19157 -0.00501557 1.17374 -0.0133186 30.4978 -4.05328 34.3646 37.9923 -5.14131 3.91227 -0.0601045 5.13083 4.04009 0.000276373 5.51468 0.00315208
1529.76 2914.34 834.664 20.633 27.7638 -17.858 -0.0307996 -22.2514 0.330458 -0.0115096 -7.32471 5.86508 10.3284 6.22483 3.44233 20.7271 10.7107 0.934987 18.5066 2.00386 4.44178 0.00453974 -0.665931 0.0131768 11.8382 -0.564135 6.78119 29.0195 -1.80342 -65.9029 64.8234 13.426 6.0605 -0.0100091 -0.0567644 -4.95814e-06 -2.84742e-07 -1.61485e-06 -2.70347e-14 -6.34516 2.97542 7.84288 -31.0866 -10.874 60.2034 -56.2847 -8.52703 -4.70183 0.000813636 -0.00461436 3.27634e-08 -1.28071e-08 7.26324e-08 -3.18055e-15 0.214955 -0.996489 3.14577 0.2783 2.17466 2.27405 0.00625376 0.203235 0.00228842 33.1632 -40.5333 37.675 -2.17241 31.3852 0.407513 -0.990471 14.7267 1.4583 -0.00651767 1.10586 -0.00219394 27.2627 -6.4924 34.876 34.3692 -4.52044 2.94245 -0.0419723 3.28298 4.54774 -0.000148959 5.53859 -0.0053089
1550.91 2922.75 832.864 23.496 28.574 -17.695 -0.0366108 -22.2931 0.684885 -0.00699652 -7.07957 5.70496 10.6256 6.18459 3.19696 21.4587 10.6157 0.696338 18.8851 1.9853 4.2243 0.00694747 -0.584674 0.0186008 13.7351 -0.578238 6.53601 27.1319 -0.878522 -63.8158 65.043 13.4231 5.97775 -0.0109925 -0.0623417 -5.98032e-06 -1.74746e-07 -9.91036e-07 -6.36111e-15 -6.39072 2.86722 11.6024 -29.9451 -10.4018 57.9094 -56.1105 -8.3629 -4.5144 0.0029802 -0.0169015 4.39561e-07 7.25817e-08 -4.11631e-07 1.90833e-14 -0.282322 -0.734629 3.65506 -0.391644 2.33351 2.66558 0.00530906 0.16671 -0.00446832 39.965 -41.9421 38.2499 -2.48404 30.0619 0.438069 -1.49361 17.1941 1.58833 -0.00813492 1.09517 0.0101459 24.7471 -8.9593 35.3938 30.7033 -3.52104 1.99644 -0.0213319 0.0387558 4.34644 -0.000529255 5.59515 -0.00632195
1573.78 2930.07 829.994 26.791 29.2825 -17.691 -0.0317663 -22.2939 0.891974 -0.00224141 -6.89606 5.58599 10.8847 6.15717 3.02781 22.1036 10.5652 0.450922 19.2838 2.01358 4.15633 0.00880641 -0.465087 0.0147659 15.2466 -0.536782 6.46566 24.8202 0.108843 -62.006 65.2451 13.5764 6.04812 -0.0294365 -0.166942 -4.28844e-05 -3.46306e-07 -1.964e-06 2.54444e-14 -6.51407 2.76922 15.6385 -29.084 -9.96026 55.3653 -54.9989 -8.15301 -4.12698 0.00873222 -0.0495229 3.77379e-06 8.69284e-09 -4.92996e-08 -4.29375e-14 -0.659876 -0.0178761 3.6096 -0.884221 2.81595 2.64941 -0.0021744 0.0609116 -0.00245237 44.6591 -43.8123 38.8886 1.34916 27.7669 -1.31343 -1.68327 18.6239 1.03033 -0.00921855 1.13787 0.0168936 23.3639 -10.0746 36.2254 28.749 -2.62925 1.40667 -0.0360272 -3.23373 3.60068 -0.00169077 5.69177 0.00293158
1600.47 2934.16 826.238 30.313 29.6739 -17.89 -0.0209338 -22.2612 0.9662 -0.000446974 -6.79645 5.48866 11.0836 6.13369 2.94565 22.5111 10.5225 0.256554 19.6707 2.02905 4.19801 0.00803677 -0.382477 0.00554792 16.3156 -0.477255 6.41957 22.5851 1.02834 -60.7408 65.1023 13.7584 6.00867 -0.040372 -0.22896 -8.06654e-05 -3.60281e-07 -2.04325e-06 -4.13472e-14 -5.74354 2.71812 18.7036 -28.4548 -9.38827 53.8248 -52.7053 -7.75589 -3.52587 0.0263281 -0.149314 3.43057e-05 -5.41588e-07 3.0715e-06 3.02153e-14 -0.477159 1.28143 2.8264 -0.610557 3.73067 2.09311 -0.00554088 0.0427085 0.0138373 45.9523 -45.9084 38.369 8.2038 24.5105 -3.75348 -1.35772 17.5843 0.096432 -0.0083312 1.19008 0.0158149 23.0923 -8.98457 37.4729 28.4161 -2.25967 1.15749 -0.0675468 -5.75497 3.10952 -0.00203807 5.78872 0.00582022
1632.06 2934.34 821.706 33.941 29.7392 -18.315 -0.0113676 -22.2062 0.966212 -0.000914966 -6.76775 5.38146 11.2014 6.10622 2.91532 22.6465 10.4862 0.143132 19.9653 1.99861 4.2539 0.00485319 -0.364299 0.00105906 16.9972 -0.439653 6.11526 20.5463 1.70879 -59.9001 64.6455 13.8441 5.76755 -0.0323271 -0.183335 -5.17203e-05 -1.72907e-07 -9.80605e-07 2.22639e-14 -3.45653 2.71351 19.6804 -27.9535 -8.50764 54.2554 -49.5147 -7.16652 -2.86523 0.0511486 -0.290076 0.000129477 -1.70845e-06 9.68911e-06 1.47896e-13 0.625032 2.79349 1.62254 0.921981 4.80262 1.17157 -0.00170232 0.215309 0.0259199 42.6089 -48.4165 35.3981 16.2246 20.6946 -5.73895 -0.892305 14.2682 -0.180077 -0.00524941 1.21282 0.0071887 23.344 -5.9012 38.7616 27.659 -2.3723 1.14415 -0.0592175 -7.44657 3.154 -0.000791755 5.83316 -0.000992593
